<svg version="1.1" id="Layer_1" xmlns="http://www.w3.org/2000/svg" xmlns:xlink="http://www.w3.org/1999/xlink" x="0px" y="0px"
	 viewBox="0 0 8 40" xml:space="preserve">
<path d="M3.5,39.4v0.5h1v-0.5H3.5z M4.4,1.1c-0.2-0.2-0.5-0.2-0.7,0L0.5,4.3C0.3,4.5,0.3,4.8,0.5,5C0.7,5.2,1,5.2,1.2,5L4,2.1L6.8,5
	C7,5.2,7.3,5.2,7.5,5c0.2-0.2,0.2-0.5,0-0.7L4.4,1.1z M4.5,39.4v-38h-1v38H4.5z"/>
<path d="M3.5,39.4v0.5h1v-0.5H3.5z M4.4,1.1c-0.2-0.2-0.5-0.2-0.7,0L0.5,4.3C0.3,4.5,0.3,4.8,0.5,5C0.7,5.2,1,5.2,1.2,5L4,2.1L6.8,5
	C7,5.2,7.3,5.2,7.5,5c0.2-0.2,0.2-0.5,0-0.7L4.4,1.1z M4.5,39.4v-38h-1v38H4.5z"/>
</svg>
