<svg version="1.1" xmlns="http://www.w3.org/2000/svg" xmlns:xlink="http://www.w3.org/1999/xlink" x="0px" y="0px"
	 viewBox="0 0 8 16" xml:space="preserve">
<path d="M4.5,1V0.5h-1V1H4.5z M3.6,15.4c0.2,0.2,0.5,0.2,0.7,0l3.2-3.2c0.2-0.2,0.2-0.5,0-0.7c-0.2-0.2-0.5-0.2-0.7,0L4,14.3
	l-2.8-2.8c-0.2-0.2-0.5-0.2-0.7,0c-0.2,0.2-0.2,0.5,0,0.7L3.6,15.4z M3.5,1v14h1V1H3.5z"/>
<path d="M4.5,1V0.5h-1V1H4.5z M3.6,15.4c0.2,0.2,0.5,0.2,0.7,0l3.2-3.2c0.2-0.2,0.2-0.5,0-0.7c-0.2-0.2-0.5-0.2-0.7,0L4,14.3
	l-2.8-2.8c-0.2-0.2-0.5-0.2-0.7,0c-0.2,0.2-0.2,0.5,0,0.7L3.6,15.4z M3.5,1v14h1V1H3.5z"/>
</svg>
