<svg version="1.1" xmlns="http://www.w3.org/2000/svg" xmlns:xlink="http://www.w3.org/1999/xlink" x="0px" y="0px"
	 viewBox="0 0 497 497" xml:space="preserve">
<path d="M158.4,496.5c-46.1,0-85.8-14.8-114.3-43.4C6.6,415.6-7.2,359.2,5,294.1C17.2,228.9,54,163,108.7,108.3
	S229.4,16.8,294.5,4.6s121.6,1.7,159,39.1s51.3,93.9,39.1,159c-12.2,65.1-49,131.1-103.7,185.8S268.2,479.9,203,492.1
	C187.6,495,172.7,496.5,158.4,496.5z M339.1,2.2c-14.2,0-29,1.4-44.3,4.3c-64.7,12.1-130.3,48.8-184.7,103.2s-91,120-103.2,184.7
	c-12.1,64.4,1.6,120.3,38.5,157.2c28.2,28.2,67.3,42.8,112.9,42.8c14.2,0,29-1.4,44.3-4.3C267.4,478,333,441.4,387.4,387
	s91-120,103.2-184.7C502.7,137.8,489,82,452.1,45.1C423.9,16.9,384.7,2.2,339.1,2.2z"/>
</svg>
