<svg version="1.1" xmlns="http://www.w3.org/2000/svg" xmlns:xlink="http://www.w3.org/1999/xlink"
	 viewBox="0 0 759 759" xml:space="preserve">
<path d="M314.4,758.5c-37.3,0-73.2-5.6-107.1-16.9c-45.2-15-84.8-39.3-117.7-72.2c-32.9-32.9-57.2-72.6-72.2-117.7
	C2.9,508-2.3,461,1.9,412C10.6,311.2,58,213,135.4,135.6S310.9,10.9,411.7,2.2c49-4.2,96,1,139.7,15.5c45.2,15,84.8,39.3,117.7,72.2
	s57.2,72.6,72.2,117.7c14.5,43.6,19.7,90.6,15.5,139.7c-8.6,100.8-56,198.9-133.4,276.3S447.8,748.4,347,757.1
	C336,758,325.2,758.5,314.4,758.5z M444.3,1.8c-10.7,0-21.5,0.5-32.5,1.4c-100.6,8.6-198.5,55.9-275.7,133.1S11.5,311.5,2.9,412.1
	c-4.2,48.9,1,95.7,15.4,139.3c14.9,45,39.1,84.5,72,117.4s72.3,57,117.4,72c43.5,14.4,90.4,19.6,139.3,15.4
	c100.6-8.6,198.5-55.9,275.7-133.1c77.2-77.2,124.5-175.2,133.1-275.7c4.2-48.9-1-95.7-15.4-139.3c-14.9-45-39.1-84.5-72-117.4
	c-32.8-32.8-72.3-57-117.4-72C517.2,7.5,481.5,1.8,444.3,1.8z"/>
</svg>
