<?xml version="1.0" encoding="utf-8"?>
<svg version="1.1" id="Layer_1" xmlns="http://www.w3.org/2000/svg" xmlns:xlink="http://www.w3.org/1999/xlink" x="0px" y="0px"
	 viewBox="0 0 22 23" style="enable-background:new 0 0 22 23;" xml:space="preserve">
<path class="st0" d="M15.9,22c-0.5,0-1-0.1-1.5-0.3c-6.1-3-11.1-7.9-14-14C-0.3,6.2,0,4.6,1.1,3.4l2.8-2.8C4.3,0.2,4.9,0,5.5,0
	c0.6,0,1.1,0.3,1.4,0.7l3.4,3.9c0.7,0.8,0.6,2-0.1,2.8L9.1,8.5c1.1,1.8,2.6,3.3,4.4,4.4l1.1-1.1c0.8-0.8,2-0.8,2.8-0.2l3.9,3.4
	c0.4,0.4,0.7,0.9,0.7,1.4c0,0.6-0.2,1.2-0.6,1.6l-2.8,2.8C17.8,21.6,16.9,22,15.9,22z M5.4,2C5.4,2,5.4,2,5.4,2L2.5,4.8
	C2,5.4,1.9,6.1,2.1,6.7c2.8,5.7,7.4,10.4,13.1,13.1c0.6,0.3,1.4,0.1,1.9-0.4l2.8-2.8c0.1-0.1,0.1-0.1,0-0.1l-3.9-3.4
	c0,0,0,0-0.1,0.1l-1.4,1.4c-0.2,0.2-0.5,0.4-0.8,0.4c-0.3,0-0.6,0-0.9-0.2c-2.4-1.4-4.4-3.4-5.8-5.8C7,8.8,6.9,8.5,7,8.2
	C7,7.9,7.2,7.6,7.4,7.3L8.7,6c0,0,0.1-0.1,0-0.1L5.4,2z M13.2,13.2C13.2,13.2,13.2,13.2,13.2,13.2L13.2,13.2z M8.8,8.8L8.8,8.8
	C8.8,8.8,8.8,8.8,8.8,8.8z"/>
</svg>
